<?xml version="1.0" encoding="utf-8"?>
<!-- Generator: Adobe Illustrator 16.0.4, SVG Export Plug-In . SVG Version: 6.00 Build 0)  -->
<!DOCTYPE svg PUBLIC "-//W3C//DTD SVG 1.1//EN" "http://www.w3.org/Graphics/SVG/1.1/DTD/svg11.dtd">
<svg version="1.1" id="Layer_1" xmlns="http://www.w3.org/2000/svg" xmlns:xlink="http://www.w3.org/1999/xlink" x="0px" y="0px"
	 width="260px" height="260px" viewBox="0 0 260 260" enable-background="new 0 0 260 260" xml:space="preserve">
<path fill="#FFFFFF" d="M121.326,25.244V7.117h-6.561V4.782c0.89,0,1.668-0.111,2.447-0.222c0.778-0.111,1.557-0.334,2.224-0.778
	c0.667-0.334,1.223-0.89,1.668-1.446c0.445-0.667,0.778-1.446,0.89-2.335h2.335v25.244H121.326z M130.89,5.338
	c0.333-1.112,0.89-2.002,1.557-2.78s1.558-1.445,2.669-1.891C136.116,0.223,137.34,0,138.674,0c1.112,0,2.113,0.111,3.114,0.445
	s1.779,0.778,2.558,1.334c0.667,0.556,1.223,1.334,1.668,2.224s0.668,1.891,0.668,3.114c0,1.112-0.223,2.113-0.557,3.002
	s-0.778,1.668-1.334,2.335c-0.557,0.667-1.224,1.334-2.002,1.779c-0.779,0.556-1.445,1.112-2.225,1.557
	c-0.778,0.445-1.557,0.89-2.335,1.445c-0.778,0.556-1.446,1.001-2.113,1.446c-0.667,0.556-1.224,1.112-1.668,1.668
	c-0.444,0.556-0.778,1.334-0.89,2.113h12.9v2.669H130c0.111-1.446,0.333-2.78,0.778-3.781c0.444-1.001,0.89-2.001,1.558-2.78
	c0.666-0.778,1.334-1.445,2.224-2.113c0.778-0.556,1.668-1.112,2.558-1.668c1.112-0.667,2.002-1.223,2.78-1.779
	s1.446-1.112,2.001-1.668c0.557-0.556,0.891-1.223,1.225-1.89c0.333-0.667,0.444-1.446,0.444-2.335c0-0.667-0.111-1.334-0.444-1.891
	c-0.223-0.556-0.557-1.001-1.002-1.445c-0.444-0.445-1-0.667-1.557-0.89c-0.556-0.223-1.223-0.334-1.891-0.334
	c-0.889,0-1.668,0.223-2.224,0.556c-0.667,0.333-1.112,0.89-1.558,1.446c-0.444,0.556-0.666,1.223-0.889,2.001
	c-0.223,0.779-0.223,1.446-0.223,2.224h-3.003C130.445,7.673,130.557,6.45,130.89,5.338z M189.162,42.481V24.354h-6.562v-2.446
	c0.89,0,1.668-0.111,2.446-0.223c0.779-0.111,1.557-0.333,2.225-0.778c0.667-0.333,1.223-0.89,1.668-1.446
	c0.445-0.667,0.778-1.445,0.89-2.335h2.335V42.37h-3.002V42.481z M225.192,65.834c0.333-1.112,0.89-2.001,1.558-2.78
	c0.666-0.778,1.557-1.445,2.668-1.89c1.001-0.445,2.225-0.667,3.559-0.667c1.112,0,2.113,0.111,3.114,0.445s1.779,0.778,2.558,1.334
	c0.667,0.556,1.223,1.334,1.668,2.224s0.668,1.891,0.668,3.114c0,1.112-0.223,2.113-0.557,3.002s-0.778,1.668-1.334,2.335
	c-0.557,0.667-1.224,1.334-2.002,1.779c-0.779,0.556-1.445,1.112-2.225,1.557c-0.778,0.445-1.557,0.89-2.335,1.445
	c-0.778,0.556-1.446,1.001-2.113,1.446c-0.667,0.556-1.224,1.112-1.668,1.668c-0.444,0.556-0.778,1.334-0.89,2.113h12.9v2.669
	h-16.57c0.111-1.446,0.334-2.78,0.779-3.781c0.444-1.001,0.889-2.001,1.557-2.78c0.667-0.778,1.334-1.445,2.224-2.113
	c0.778-0.556,1.668-1.112,2.558-1.668c1.112-0.667,2.002-1.223,2.78-1.779s1.446-1.112,2.002-1.668
	c0.556-0.556,0.89-1.224,1.224-1.891c0.333-0.667,0.444-1.446,0.444-2.335c0-0.667-0.111-1.334-0.444-1.891
	c-0.223-0.556-0.557-1-1.002-1.445c-0.444-0.445-1-0.667-1.557-0.89c-0.556-0.223-1.223-0.334-1.891-0.334
	c-0.889,0-1.668,0.223-2.224,0.556c-0.667,0.333-1.112,0.89-1.557,1.446c-0.445,0.556-0.667,1.223-0.89,2.001
	c-0.223,0.779-0.223,1.446-0.223,2.224h-3.002C224.748,68.058,224.859,66.946,225.192,65.834L225.192,65.834z M245.988,127.998h1
	c0.668,0,1.224-0.111,1.779-0.222c0.557-0.111,1.113-0.445,1.558-0.778s0.778-0.779,1.001-1.334
	c0.223-0.556,0.444-1.112,0.444-1.779c0-1.334-0.444-2.335-1.335-3.003c-0.889-0.667-1.89-1-3.225-1
	c-0.778,0-1.557,0.111-2.113,0.445c-0.555,0.333-1.111,0.667-1.445,1.223c-0.444,0.445-0.667,1.112-0.889,1.779
	c-0.223,0.667-0.334,1.334-0.334,2.113h-3.003c0-1.223,0.223-2.335,0.556-3.336c0.334-1.001,0.891-1.891,1.446-2.558
	c0.667-0.667,1.445-1.224,2.446-1.668s2.113-0.556,3.336-0.556c1.112,0,2.113,0.111,3.003,0.445c0.89,0.333,1.779,0.667,2.446,1.223
	c0.668,0.556,1.224,1.223,1.668,2.113c0.445,0.89,0.557,1.891,0.557,3.002c0,1.112-0.334,2.113-1.001,3.002
	s-1.446,1.557-2.446,2.002v0.111c1.557,0.333,2.668,1.112,3.447,2.224c0.778,1.112,1.111,2.447,1.111,4.004
	c0,1.223-0.222,2.335-0.667,3.336c-0.444,1.001-1.112,1.779-1.89,2.447c-0.779,0.666-1.669,1.111-2.781,1.445
	c-1.111,0.334-2.224,0.444-3.336,0.444c-1.334,0-2.446-0.222-3.447-0.556s-1.891-0.89-2.669-1.557
	c-0.778-0.668-1.335-1.557-1.668-2.559c-0.444-1-0.556-2.224-0.556-3.447h3.002c0,1.668,0.557,3.003,1.445,4.004
	c0.891,1.001,2.225,1.557,4.004,1.557c0.778,0,1.445-0.111,2.113-0.334c0.667-0.222,1.223-0.556,1.779-1
	c0.556-0.445,0.89-0.891,1.223-1.557c0.334-0.668,0.445-1.335,0.445-2.002c0-0.779-0.111-1.446-0.445-2.113
	c-0.333-0.667-0.667-1.112-1.111-1.557c-0.445-0.445-1.001-0.779-1.668-0.89c-0.668-0.111-1.335-0.334-2.113-0.334
	c-0.668,0-1.224,0-1.779,0.111v-3.002C245.766,127.998,245.877,127.998,245.988,127.998L245.988,127.998z M242.207,193.276v2.669
	h-3.447v5.895h-2.892v-5.895h-11.12v-2.892l11.453-16.458h2.447v16.681H242.207L242.207,193.276z M235.979,180.933l-8.452,12.344
	h8.452V180.933z M186.048,221.745l-1.335,7.229l0.111,0.11c0.557-0.666,1.224-1.111,2.113-1.334c0.89-0.334,1.779-0.444,2.558-0.444
	c1.112,0,2.224,0.222,3.114,0.556c1,0.334,1.891,0.89,2.558,1.668c0.778,0.779,1.335,1.668,1.779,2.669s0.667,2.335,0.667,3.781
	c0,1.112-0.223,2.112-0.557,3.114c-0.333,1-0.889,1.891-1.668,2.668c-0.777,0.779-1.668,1.446-2.779,1.891
	c-1.112,0.445-2.336,0.668-3.893,0.668c-1.111,0-2.113-0.111-3.113-0.445c-1.002-0.334-1.779-0.778-2.559-1.334
	c-0.777-0.557-1.334-1.335-1.779-2.225c-0.444-0.89-0.667-1.891-0.667-3.113h3.003c0,0.667,0.223,1.223,0.445,1.779
	c0.222,0.556,0.666,1,1.111,1.445s1.001,0.778,1.668,1.001c0.668,0.222,1.334,0.333,2.113,0.333c0.667,0,1.445-0.111,2.002-0.333
	c0.667-0.223,1.223-0.667,1.668-1.112c0.444-0.445,0.889-1.111,1.111-1.891c0.334-0.778,0.445-1.668,0.445-2.669
	c0-0.778-0.111-1.557-0.445-2.335c-0.333-0.779-0.667-1.334-1.111-1.779c-0.445-0.445-1.112-0.89-1.779-1.224
	c-0.668-0.333-1.445-0.444-2.336-0.444c-1,0-1.891,0.223-2.668,0.667c-0.779,0.444-1.446,1.001-2.002,1.779l-2.559-0.111
	l2.336-13.122h12.455v2.669h-10.009V221.745z M133.447,238.092c-0.778-0.666-1.668-1-2.891-1c-1.335,0-2.336,0.334-3.114,0.89
	c-0.779,0.556-1.446,1.445-1.779,2.335c-0.334,0.89-0.778,2.002-0.89,3.113c-0.111,1.113-0.223,2.113-0.334,3.114l0.111,0.111
	c0.667-1.112,1.557-2.001,2.669-2.558c1.001-0.557,2.224-0.778,3.67-0.778c1.224,0,2.335,0.222,3.226,0.667
	c1,0.445,1.779,1.001,2.445,1.779c0.668,0.778,1.113,1.557,1.558,2.558c0.333,1.001,0.556,2.113,0.556,3.226
	c0,0.889-0.111,1.891-0.444,2.891c-0.334,1.001-0.778,1.891-1.446,2.67c-0.667,0.777-1.557,1.445-2.558,2.001
	c-1.112,0.556-2.446,0.778-4.003,0.778c-1.89,0-3.336-0.334-4.559-1.111c-1.224-0.779-2.002-1.779-2.669-2.893
	c-0.667-1.223-1.001-2.445-1.224-3.892c-0.222-1.446-0.333-2.78-0.333-4.114c0-1.779,0.111-3.447,0.445-5.004
	c0.333-1.669,0.778-3.114,1.557-4.338c0.667-1.223,1.668-2.225,2.891-3.002c1.223-0.779,2.669-1.112,4.448-1.112
	c2.113,0,3.781,0.556,5.005,1.668c1.223,1.112,1.891,2.669,2.112,4.782h-3.003C134.671,239.649,134.226,238.76,133.447,238.092
	L133.447,238.092z M127.998,246.433c-0.667,0.334-1.223,0.667-1.668,1.224c-0.445,0.556-0.778,1.111-1.001,1.779
	c-0.222,0.667-0.333,1.445-0.333,2.225c0,0.777,0.111,1.557,0.333,2.224c0.223,0.667,0.556,1.335,1.001,1.779
	s1.001,0.89,1.668,1.224c0.667,0.333,1.446,0.444,2.225,0.444c0.778,0,1.557-0.111,2.224-0.444c0.667-0.334,1.112-0.668,1.558-1.224
	c0.444-0.556,0.777-1.112,1-1.779s0.334-1.335,0.334-2.112c0-0.779-0.111-1.558-0.334-2.225c-0.223-0.668-0.556-1.334-0.889-1.779
	c-0.445-0.557-1.002-0.89-1.558-1.224c-0.556-0.333-1.335-0.444-2.224-0.444C129.333,245.988,128.666,246.211,127.998,246.433z
	 M76.176,226.193c-1.112,1.779-2.113,3.559-3.002,5.561s-1.557,4.003-2.113,6.116c-0.556,2.112-0.89,4.114-1,6.116h-3.336
	c0.111-2.113,0.445-4.227,1.001-6.228c0.556-2.002,1.223-4.003,2.113-5.782s1.891-3.67,3.002-5.338
	c1.112-1.668,2.335-3.226,3.67-4.561H63.499v-3.002h16.348v2.558C78.512,222.969,77.288,224.414,76.176,226.193L76.176,226.193z
	 M20.907,180.266c0.445-0.779,1.001-1.446,1.668-2.002c0.667-0.557,1.446-1.001,2.335-1.224c0.89-0.333,1.779-0.444,2.78-0.444
	c1.334,0,2.558,0.223,3.559,0.556s1.779,0.89,2.335,1.446c0.556,0.556,1,1.334,1.334,2.112c0.333,0.778,0.445,1.558,0.445,2.335
	c0,1.112-0.334,2.225-0.89,3.114c-0.556,0.89-1.446,1.668-2.558,2.112c1.557,0.445,2.669,1.224,3.336,2.336
	c0.667,1.111,1.112,2.446,1.112,4.004c0,1.223-0.222,2.335-0.667,3.225c-0.445,1-1.001,1.779-1.779,2.446s-1.668,1.112-2.669,1.446
	c-1.001,0.333-2.113,0.444-3.225,0.444c-1.223,0-2.335-0.111-3.336-0.444c-1.001-0.334-2.002-0.779-2.669-1.446
	c-0.667-0.667-1.334-1.446-1.779-2.446c-0.445-1.001-0.667-2.113-0.667-3.336c0-1.446,0.333-2.781,1.112-3.893
	c0.778-1.112,1.89-1.891,3.225-2.447c-1.112-0.444-1.89-1.111-2.558-2.112c-0.667-1.001-1.001-2.001-1.001-3.114
	C20.24,181.934,20.462,181.043,20.907,180.266z M24.132,198.281c1.001,0.889,2.335,1.334,3.892,1.334
	c0.778,0,1.446-0.111,2.113-0.334c0.667-0.223,1.224-0.556,1.668-1c0.445-0.445,0.778-1.002,1.112-1.558s0.333-1.224,0.333-2.001
	c0-0.668-0.111-1.335-0.445-1.891c-0.333-0.557-0.667-1.113-1.112-1.558s-1.001-0.778-1.668-1.001
	c-0.667-0.223-1.334-0.334-2.002-0.334c-0.778,0-1.446,0.111-2.113,0.334c-0.667,0.223-1.223,0.557-1.668,1.001
	s-0.89,0.89-1.112,1.558c-0.222,0.556-0.445,1.223-0.445,2.001C22.575,196.168,23.02,197.391,24.132,198.281L24.132,198.281z
	 M23.798,184.936c0.222,0.557,0.556,0.891,1,1.224s0.89,0.556,1.446,0.778c0.556,0.111,1.112,0.223,1.779,0.223
	c1.223,0,2.224-0.334,3.002-1.112c0.779-0.667,1.224-1.668,1.224-3.003c0-1.334-0.445-2.224-1.224-2.891
	c-0.778-0.668-1.779-1.001-3.002-1.001c-0.556,0-1.112,0.11-1.668,0.222s-1.001,0.445-1.446,0.779s-0.667,0.778-0.89,1.223
	c-0.222,0.445-0.333,1.001-0.333,1.668C23.464,183.824,23.576,184.38,23.798,184.936L23.798,184.936z M9.008,139.119
	c0.89,0.667,1.891,1,3.114,1c1.891,0,3.225-0.777,4.115-2.445c0.89-1.669,1.445-4.004,1.557-7.34l-0.111-0.111
	c-0.556,1.111-1.334,1.891-2.446,2.558c-1.001,0.667-2.224,0.89-3.447,0.89c-1.335,0-2.447-0.223-3.448-0.668
	c-1-0.444-1.779-1-2.558-1.779c-0.667-0.778-1.223-1.667-1.557-2.668c-0.333-1-0.556-2.224-0.556-3.447s0.222-2.335,0.556-3.336
	c0.445-1,1.001-1.89,1.668-2.558c0.778-0.778,1.668-1.334,2.669-1.668c1-0.445,2.113-0.556,3.336-0.556
	c1.224,0,2.335,0.223,3.336,0.556s2.001,1.001,2.78,1.891c0.778,0.89,1.445,2.113,1.89,3.67c0.445,1.557,0.667,3.559,0.667,5.894
	c0,4.337-0.667,7.673-2.113,10.009c-1.334,2.336-3.559,3.559-6.672,3.559c-2.113,0-3.893-0.557-5.227-1.557
	c-1.334-1.001-2.224-2.67-2.335-4.894h3.003C7.673,137.451,8.229,138.451,9.008,139.119z M17.015,123.328
	c-0.223-0.667-0.556-1.334-1.001-1.779s-1.001-1.001-1.668-1.223c-0.667-0.334-1.334-0.445-2.224-0.445s-1.668,0.111-2.335,0.445
	c-0.667,0.333-1.112,0.778-1.557,1.334c-0.445,0.556-0.667,1.223-0.89,1.89c-0.223,0.667-0.223,1.446-0.223,2.225
	c0,0.667,0.111,1.334,0.333,2.001c0.223,0.667,0.556,1.223,1.001,1.668s1.001,0.89,1.557,1.223c0.556,0.334,1.223,0.445,2.001,0.445
	s1.446-0.111,2.113-0.445c0.667-0.333,1.224-0.667,1.668-1.223s0.778-1.112,1-1.779c0.223-0.667,0.334-1.334,0.334-2.113
	C17.348,124.773,17.237,123.995,17.015,123.328z M19.127,84.517V66.501h-6.45v-2.447c0.89,0,1.668-0.111,2.446-0.222
	c0.778-0.111,1.557-0.334,2.224-0.779c0.667-0.333,1.223-0.89,1.668-1.445c0.445-0.667,0.779-1.446,0.89-2.335h2.335v25.244H19.127z
	 M28.357,69.281c0-1,0.111-2.001,0.334-2.891c0.222-1.001,0.445-1.891,0.778-2.669c0.333-0.89,0.89-1.557,1.446-2.224
	c0.667-0.667,1.445-1.112,2.335-1.557s2.113-0.556,3.336-0.556c1.334,0,2.446,0.222,3.336,0.556c0.89,0.334,1.668,0.89,2.335,1.557
	c0.667,0.667,1.112,1.334,1.446,2.224s0.667,1.779,0.778,2.669c0.223,1.001,0.333,1.891,0.333,2.891
	c0,1.001,0.111,2.002,0.111,2.892s0,1.891-0.111,2.891c-0.111,1.001-0.111,2.002-0.333,2.892c-0.222,1.001-0.445,1.891-0.778,2.669
	s-0.89,1.557-1.446,2.224c-0.667,0.667-1.334,1.112-2.335,1.557c-1,0.445-2.001,0.556-3.336,0.556s-2.447-0.222-3.336-0.556
	c-0.89-0.333-1.668-0.89-2.335-1.557c-0.667-0.667-1.112-1.334-1.446-2.224s-0.667-1.779-0.778-2.669
	c-0.223-1.001-0.334-1.891-0.334-2.892c0-1-0.111-2.001-0.111-2.891C28.357,71.283,28.357,70.282,28.357,69.281z M31.583,75.287
	c0.111,1.223,0.223,2.224,0.556,3.336c0.333,1.001,0.89,1.891,1.557,2.669c0.667,0.779,1.668,1.112,3.003,1.112
	s2.224-0.333,3.002-1.112c0.778-0.778,1.223-1.557,1.557-2.669c0.334-1,0.556-2.113,0.556-3.336
	c0.111-1.223,0.111-2.224,0.111-3.225V70.06c0-0.779-0.111-1.446-0.223-2.224c-0.111-0.779-0.222-1.446-0.445-2.224
	c-0.222-0.667-0.445-1.334-0.89-1.891s-0.89-1.001-1.445-1.334c-0.556-0.333-1.334-0.445-2.224-0.445s-1.557,0.111-2.224,0.445
	c-0.556,0.333-1.112,0.778-1.446,1.334c-0.445,0.556-0.667,1.112-0.89,1.891c-0.223,0.667-0.333,1.445-0.445,2.224
	c-0.111,0.778-0.111,1.445-0.223,2.224v2.001C31.583,73.062,31.583,74.174,31.583,75.287z"/>
<g>
	<path fill="#FFFFFF" d="M63.499,42.481V24.354h-6.561v-2.446c0.89,0,1.668-0.111,2.447-0.223c0.778-0.111,1.557-0.333,2.224-0.778
		c0.667-0.333,1.223-0.89,1.668-1.446c0.445-0.667,0.778-1.445,0.89-2.335h2.335V42.37h-3.003V42.481z M80.847,42.481V24.354h-6.561
		v-2.446c0.89,0,1.668-0.111,2.447-0.223c0.778-0.111,1.557-0.333,2.224-0.778c0.667-0.333,1.223-0.89,1.668-1.446
		c0.445-0.667,0.778-1.445,0.89-2.335h2.335V42.37h-3.003V42.481z"/>
</g>
</svg>
